# xmcd
#
# Track frame offsets: 
#        150
#        5061
#        12312
#        21427
#        32872
#        50346
#        64588
#        70881
#        76976
#        88100
#
# Disc length: 1278 seconds
#
# Revision: 0
# Processed by: cddbd v1.5.2PL0 Copyright (c) Steve Scherf et al.
# Submitted via: ExactAudioCopy v0.99pb1
#
DISCID=7d04fc0a
DTITLE=Coelhinho da Páscoa - Cantar e Brincar Vol 06
DYEAR=2008
DGENRE=Acoustic
TTITLE0=Coelhinho da Páscoa
TTITLE1=A canoa virou
TTITLE2=Sorvete colorê
TTITLE3=Ele é tudo pra mim
TTITLE4=Que alegria
TTITLE5=A noite está tão linda
TTITLE6=Anel de pedra verde
TTITLE7=Eu fui no Itororó
TTITLE8=Dedo mindinho
TTITLE9=Dê um sorriso
EXTD=
EXTT0=
EXTT1=
EXTT2=
EXTT3=
EXTT4=
EXTT5=
EXTT6=
EXTT7=
EXTT8=
EXTT9=
PLAYORDER=
